<?xml version="1.0" encoding="utf-8"?>
<!-- Generator: Adobe Illustrator 28.0.0, SVG Export Plug-In . SVG Version: 6.00 Build 0)  -->
<svg version="1.1" id="svg" xmlns="http://www.w3.org/2000/svg" xmlns:xlink="http://www.w3.org/1999/xlink" x="0px" y="0px"
	 viewBox="0 0 1024 1024" style="enable-background:new 0 0 1024 1024;" xml:space="preserve">
<style type="text/css">
	.st0{fill:#2E4031;}
	.st1{fill:#E8DECF;}
	.st2{fill:#E9DCCB;}
	.st3{fill:#E5DAC8;}
	.st4{fill:#E5DAC9;}
	.st5{fill:#E8DBC9;}
	.st6{fill:#E7DBC7;}
	.st7{fill:#E4D9C7;}
	.st8{fill:#293229;}
	.st9{fill:#3F372E;}
	.st10{fill:#4F473C;}
</style>
<path class="st0" d="M0,0c337.9,0,675.8,0,1024,0c0,337.9,0,675.8,0,1024c-337.9,0-675.8,0-1024,0C0,686.1,0,348.2,0,0z"/>
<path class="st1" d="M615.8,797.4c-0.3-1.5-0.5-3-0.8-4.4c-1-5.5-2.2-10.6-3.8-16c-3.8-14.3-3.8-14.3-7.1-28.8
	c-0.4-1.8-0.8-3.5-1.2-5.2h-2c-1.1,4.3-2.8,7.4-4.9,11.2c-2.3,4.1-4,7.7-5.3,12.2c-0.3,1.2-0.5,2.4-0.7,3.5c-0.7-1.4-1.3-2.7-2-4
	c-7.3,10.4-14.6,20.7-20.4,32c-3.5,6.8-7.1,13.3-11.3,19.6c-0.8,1.1-1.5,2.3-2.3,3.4c-3.2,4.8-6.4,9.5-10,14c-2,1.7-4,3.3-6,5
	c-6.9,6-13.2,9.4-22,12c-18.8,1.4-33.8-3.6-47.2-17.3c-1.6-1.9-3.2-3.8-4.8-5.7c-5.2-6.2-9.9-12.6-14.4-19.3
	c-2.2-3.2-4.4-6.5-6.6-9.7c-14.8-20.9-29.5-41.3-32.6-67.2c-0.1-1.3-0.3-2.5-0.4-3.8h-1c-3.2,20.7-5.9,41.4-8.6,62.1
	c-0.6,5-1.3,10.1-2,15.1c-1.6,12.4-2.8,24.3-2.4,36.7h1c3.7-8.2,7.4-16.1,11-24c-1.6,9-2.5,17-3,26c4.5-1.4,4.5-1.4,11,0
	c2.6,7.7,5.2,16.2,11,22c1.4-3.1,2.7-6,4-9c0.1,1.2,0.1,2.4,0.2,3.6c0.1,2.4,0.1,2.4,0.3,4.7c0.4,8.4,1.5,12.9,6.6,19.8h4
	c3.7,8.6,8.4,21.8,18,25c0.3-5.1,0.7-10,1-15h2c-1.1,21.7,8.8,46.7,18.4,66.1c1.2,2.4,2.4,4.6,3.6,6.9c-8.5-2.5-8.5-2.5-14.7-9.5
	c-1-1-2-2-3-3c-5.7-5.7-11.1-11.3-16.2-17.5c-4.8-5.9-9.2-11.6-16.1-15.1c0,11.6,9.2,25.6,16.9,33.7c2,1.8,3.2,2.9,4.1,3.9
	c2.2,1.8,4.4,3.7,6.4,5.6c2.7,2.1,5.2,4.4,8,6.5c4.7,3.5,10.2,5.8,15,9c10.3,0.3,20.6,0.2,30.8-0.2c2.2-3.1,5.3-5.2,9.1-6.8
	c5.3-2.4,10.1-5.7,15.3-8.3c15.6-12.7,21.4-23.9,21.4-44.5h-2c-11,16.7-11,16.7-25.5,30.7c-1.5,1.5-3,2.9-4.5,4.3
	c-4.8,4.6-8.7,8.5-15,11c0.1-1.2,0.2-2.4,0.4-3.5c0.2-1.6,0.3-3.1,0.5-4.6c0.7-6.9,2-12.6,5.1-18.9h2c-3.3,6.7-3.3,6.7-3,22h1
	c0.7-2.4,1.3-4.7,2-7c3.5-12.4,8.5-23,15-34.1c7.2-11.9,13.1-22,14.7-36.1c0.1-1.6,0.2-3.2,0.3-4.8h2v12c0.7-1,1.3-2,2-3
	c2.4-7.8,5.8-14.2,10.1-21.1c3.1-5,5.8-9.5,7.8-15c0.4-1.3,0.8-2.6,1.1-3.9c1,0.3,2,0.7,3,1c5,5,5,5,9,4c0.4-1.8,0.4-1.8,0.8-3.5
	c0.4-1.6,0.7-3.1,1.1-4.6c0.7-3,1.4-6,2.1-8.9c0.3-2.4,0.7-4.7,1-7h2c0,6.3,1.2,10,5,15c1.7-2,3.4-4,5-6c-0.3-6.1-0.7-12.1-1-18
	c2.5,6.1,2.5,6.1,5,12c1-0.3,2-0.7,3-1C619.8,821,619.8,821,615.8,797.4z"/>
<path class="st2" d="M466,562c6.9,1.4,13,5,17,11c0,1,0,2,0,3c0.7,0,1.3,0,2,0c0-2.3,0-4.6,0-7c1.3,0.3,2.6,0.7,4,1c0,0.7,0,1.3,0,2
	c1.3,0,2.6,0,4,0c0,0.7,0,1.3,0,2c2.3-1.7,4.6-3.3,7-5c1.6,0,3.3,0,5,0c1.3-0.3,2.6-0.7,4-1c0,1,0,2,0,3c2-1.3,4-2.6,6-4
	c1,0.3,2,0.7,3,1c-1.7,2.6-3.3,5.3-5,8c10.6-2.7,18.1-6.9,27-13c3.3,0.3,6.6,0.7,10,1c-1,2-1,2-5,4.1c-5.9,3.4-11.2,7-16,11.9
	c7.5-4.8,15-9.5,22-15c6,1,6,1,9.7,5.2c7.8,7.9,17.7,12.5,27.3,17.8c1,0.7,2,1.3,3,2c-2,4-2,4-6,10c-0.7,5.3-1.3,10.6-2,16
	c1,0,2,0,3,0c0.5,1.7,0.9,3.5,1.4,5.2c3.6,11.9,9.4,23.1,14.6,34.3c1.9,4.4,1.9,4.4,1.9,7.4c-0.7,0-1.3,0-2,0c0.3,2.6,0.7,5.3,1,8
	c-1.2-0.5-2.4-1-3.6-1.5c-11.5-3.2-23.6-3.4-32.4,5.5c-0.7,0-1.3,0-2,0c-1,2-1,2-2,4c-1.1,1.9-2.2,3.7-3.4,5.6
	c-3.1,5.4-5.5,10.6-7.6,16.4c2.3-1,4.6-2,7-3c5.3-1.1,10.6-2,15.9-2.8c12.2-2.8,13.7-5.9,21.1-17.2c1.3,0,2.6,0,4,0
	c0.2,10.8-0.6,21.3-1.8,32.1c-0.2,2.3-0.2,2.3-0.5,4.7c-2.5,22.5-9.1,35.7-23.4,53c-3.7,4.6-7.1,9.3-10.2,14.2c-0.7,1-1.3,2-2,3
	c-1.1-3-1.1-3-2.2-6.1c-3.3-8.7-6.6-17.3-9.9-26c-0.8-2-0.8-2-1.6-4.1c-2.3-6-4.7-11.9-7.2-17.8c-0.4,17,2.7,28.3,10.6,43.4
	c3.2,6.1,3.5,9.5,3.5,16.3c0,1.6,0,3.1,0,4.7c-0.1,9.1-6.9,16.5-13,22.6c-6,3-6,3-21,3c2.9-7.2,7.6-11.6,13-17c6.4-7,6.4-7,6-19
	c-5.3-10.5-9.9-11.6-21-13c-24-1-24-1-45,9c-3.6,7.1-0.3,12.9,3,19c5.4,7.8,11.7,13.1,19,19c0,0.3,0,0.7,0,1c-3,0.1-6,0.1-9,0.2
	c-1.7,0-3.3,0.1-5.1,0.1c-9.8-0.6-14-3.8-19.9-11.3c-6.2-14.7-7.9-22.9-1.2-37.9c5.4-12,8.4-22.9,9.2-36.1
	c-6.5,13.3-12.2,26.7-17.7,40.5C450,781,450,781,448,784c-1.5-1.9-2.9-3.9-4.4-5.9c-3.3-4.3-6.5-8.2-10.2-12.1
	c-18.8-21.5-20.5-47.5-23.7-74.8c-0.7-4.8-1.6-9.5-2.7-14.2c2-1,2-1,4-2c0.9,1.7,1.7,3.4,2.6,5.2c8.2,14.1,22.5,16.6,37.4,19.8
	c-2.1-13.7-8-23.1-20.3-29.9c-10-3.7-10-3.7-19.7-1.1c-2.3-0.3-4.6-0.7-7-1c2.3-7.2,5-14.1,8-21c0.6-1.4,1.1-2.7,1.7-4.1
	c0.6-1.4,1.2-2.8,1.8-4.3c0.6-1.3,1.1-2.6,1.7-4c1.7-3.7,1.7-3.7,5.7-9.7c1.2-3.9,1.2-3.9,1.8-7.9c0.3-1.3,0.5-2.7,0.8-4.1
	c0.8-7.5-1.1-12.6-4.6-18.9c-0.7-1.3-1.5-2.7-2.2-4c-0.6-1-1.1-2-1.7-3c0-0.7,0-1.3,0-2c1.6-0.8,1.6-0.8,3.2-1.6
	c12.7-5.9,12.7-5.9,23.8-14.4c0.7,1.3,1.3,2.6,2,4c4.9-3.5,4.9-3.5,7-7c2-0.7,4-1.3,6-2c4,5,4,5,4,8c1,0,2,0,3,0
	c0.3-2.3,0.7-4.6,1-7c1.6,1.7,3.3,3.3,5,5c1,0.7,2,1.3,3,2c-2.8-5.5-2.8-5.5-9-9C466,562.7,466,562.3,466,562z"/>
<path class="st3" d="M178,53c1,1,1,1,1,9c-1.5,4.3-3.1,8.5-4.8,12.8c-8.4,20.7-10.5,40.1-10.4,62.2c0,1.6,0,3.2,0,4.8
	c0,19.4,1.6,38.5,10.3,56.2c0.7,0.3,1.3,0.7,2,1c0.1-1.1,0.2-2.3,0.2-3.4c4-29.4,17.1-54.2,31.8-79.6c3.2-5.7,6.5-11.5,9.7-17.2
	c2.2-3.9,4.5-7.9,6.7-11.8c6.2-10.8,11.8-21.5,16.5-33c4-1,4-1,6,1c2.3,21.3-16.9,47.1-27.2,64.9c-24.6,42.6-36.2,90-19.8,138.1
	c2.5,3.2,2.5,3.2,5,3c6.5-13.3,12.9-26.6,18.8-40.1c3.8-8.6,7.8-17,12.3-25.3c1.6-3,3.1-6.2,4.6-9.3c9.2-17.3,21.6-32.7,33.4-48.3
	c13.8-18.4,25.9-38.4,34-60c1-0.3,2-0.7,3-1c5.4,5.4,3.6,5.9,2,13c-0.6,2.5-0.6,2.5-1.1,5.1c-2,6.5-4.8,12.1-7.9,18.1
	c-1.8,3.5-3.4,7.2-4.9,10.8c-2.3,4-4.7,8-7,12c-1.1,2.3-1.1,2.3-2.3,4.7c-2.8,5.5-6.1,10.6-9.6,15.7c-4.8,7.1-9.6,14.3-14.1,21.6
	c3-2.4,5.9-4.8,8.7-7.3c4.5-3.9,9.2-7.1,14.2-10.4c8.4-5.5,16.6-11.2,24.8-17c6.1-4.4,6.1-4.4,10.3-3.3c1,1,1,1,1,6
	c-5.4,6.1-10.8,11.8-17,17c-2.2,1.9-4.5,3.8-6.7,5.8c-3.5,3-7,6-10.6,9C256,206.4,227.5,249.4,230,296c1.6,8.5,4.5,16.1,8,24
	c0.5,1.5,0.5,1.5,1,3c5.2-2.5,9.5-5.1,14.3-8.4c18.4-12.4,42.1-27.1,64.7-28.6c0,7,0,7-6,10.4c-1.3,0.7-2.6,1.5-3.9,2.2
	c-2.7,1.5-5.4,3-8.1,4.5c-28.7,15.6-28.7,15.6-48,40.8c0,29.9,26.2,63.2,46,84c1.4,1.5,2.7,2.9,4.1,4.4
	c14.1,13.2,30.2,22.8,46.9,32.6c4.9,2.9,9.8,5.9,14.7,8.9c1.2,0.7,2.4,1.4,3.6,2.2c8,4.9,15.9,9.8,23.7,15c0.7,0.3,1.3,0.7,2,1
	c-0.9-2.1-1.8-4.3-2.7-6.5c-13.9-34.8-20.5-79,4.7-110.5c1.3,0.3,2.6,0.7,4,1c0,7,0,7-0.9,12.1c-2.4,13.3-2.3,26.9-2.3,40.4
	c0,1.8,0,3.5-0.1,5.4c-0.1,20,2.6,37.5,17.3,52.2c18.2-3,30.6-25.3,37-41c6-17,2.5-33.4-3-50c0-3,0-6,0-9c1.3-0.3,2.6-0.7,4-1
	c18,26.9,14,56.8,1,85c-3.2,6-6.6,11.9-10,17.8c-8.4,14.7-10.3,27.8-2,43.2c5,7.3,10.5,13.9,17,20c-13,13-25.3,23.3-44,26
	c-0.6-2.1-1.3-4.2-1.9-6.4c-4.6-13.7-10.9-25.2-21.1-35.6c-0.9-1.2-1.9-2.4-2.9-3.6c-15.9-17.5-38.6-28.6-59.8-38.5
	c-33.7-15.8-56.9-36.5-79.8-65.8c-5.4-6.9-11-13.5-16.6-20.1c-1.6-2-3.3-4-5-6c-6.1-4.9-12.4-9.3-19-13.4
	c-18.4-11.7-37-30.4-37-53.6c5-5,5-5,10-4c1.2,2.2,1.2,2.2,2.3,4.5c1,2,2.1,3.9,3.2,5.9c1,1.9,2,3.9,3.1,5.9
	c10,16.7,23.3,24.6,42.4,25.7c-1.8-5.4-3.4-8.5-7-13c-1.7-3-3.4-6-5-9c-1-1.6-2-3.3-3-5c-12-23.2-11.4-44.6-2.2-68.2
	c2.4-5.2,2.4-5.2,2.2-8.8c-0.5,1.9-1.1,3.7-1.6,5.6c-1.7,5.2-3.4,9.9-5.6,14.9c-5.5,12.6-4.7,24.5-0.8,37.5c0.4,1.4,0.8,2.8,1.3,4.2
	c3.3,10.5,7.6,20.1,12.7,29.8c3,6,3,6,3,9c-10.8-4.3-15.1-13.1-20-23c0-1,0-2,0-3c-0.7,0-1.3,0-2,0c-0.8-2.3-1.5-4.5-2.3-6.9
	C195,319,189,302.2,181,286c-0.7-1.4-1.4-2.9-2.1-4.3c-2.6-5.2-5.2-10.4-7.9-15.6c-30.8-60.5-37.6-150-1-210.1C174,52,174,52,178,53
	z"/>
<path class="st4" d="M852,53c30.3,37,30.9,111.9,20,156c-0.5,1.9-0.9,3.7-1.4,5.6c-7.8,29-21.8,55.6-36.2,81.9
	c-4.7,8.9-9.2,17.7-11.8,27.4c-5.7,18.9-16,32.5-32.6,43.1c-0.7,0-1.3,0-2,0c1-5,1-5,2-8c-2.5,5.4-2.5,5.4-5,11
	c27.1-1.7,41.5-20.8,53-43c4,2,4,2,7,6c-1.1,25.4-20.6,40.2-40.8,52.2c-20.2,12.3-36.5,28.4-51.2,46.8c-25.6,28.3-50.1,47.5-84.2,64
	c-36.4,17.8-64.7,41.2-74.8,82c-12.7-2.1-22-8.5-31.8-16.4c-3.6-2.8-7.3-5.3-11.2-7.6c2.6-5.2,6.6-8.2,10.9-12.1
	c12.4-11.7,19.2-24.7,17.1-41.9c-3.1-8.6-7.3-16.3-12-24.2c-17.1-30-17.3-60.7-1-90.8c4-1,4-1,5,0c0,6.5-0.5,11-1.9,17.2
	c-0.4,1.5-0.7,3.1-1.1,4.7c-0.3,1.4-0.6,2.7-1,4.1c-5.6,28.1,5,50.8,24,71c5.7,4.8,5.7,4.8,12,3c16.9-17.6,18.1-42,18.2-65.1
	c0-1.3,0-2.7,0-4c0-11.3-1.4-21.9-3.4-33C617,378,617,378,617,374c6.7,0,7.5,5.5,10.7,10.7c14.7,27.2,9.6,63.8,1.3,92.3
	c57.2-22.1,113.9-67,132-128c0.7-17.6-15.9-28.9-29.8-37.3c-8-4.6-16.3-8.8-24.6-12.8c-3.8-2-7.2-4.3-10.6-6.9c0-5,0-5,2-7
	c24.3,3.9,47.6,20.4,67.8,33.8c5.1,3.5,5.1,3.5,11.2,4.2c17.3-26.5,9.1-64.7-4.4-91c-12.1-22-28.2-42.2-47.8-58.2
	c-6-5-11.7-10.2-17.4-15.5c-3.8-3.5-7.6-6.9-11.5-10.3c-1-6-1-6,1-9c10.2,4.1,18.8,11.6,27.3,18.3c4.4,3.3,8.8,6.3,13.3,9.3
	c7,4.7,13.3,9.6,19.3,15.4c-4.6-15.8-15.7-28.6-25.1-41.8C729,136,729,136,727,131c-1.3-3-2.7-6-4-9c-14-32.2-14-32.2-14-41
	c2.5-1,2.5-1,5-2c4.6,9,9,18.1,13.3,27.3c6.9,14.5,14.2,28.4,24.7,40.7c18.9,22.6,32.1,46.4,43.7,73.3c3,7.1,6.1,14.1,9.3,21.1
	c0.8,1.9,1.7,3.7,2.5,5.6c2.4,4.8,5.2,8.8,8.5,13c0.7,0,1.3,0,2,0c29.1-56.6-1-120-29-169.5c-2.3-4.1-4.4-8.3-6.4-12.6
	c-1-2-1-2-1.9-4.1c-2.4-5.8-3.6-10.6-3.6-16.8c1.3-1.3,2.6-2.6,4-4c3,1,3,1,6.1,8.4C792.7,74.1,799.9,86,807,98
	c18.4,31.6,34,62.7,40,99c1,0.7,2,1.3,3,2c17.1-31.1,14.4-76.8,5-110c-0.5-1.8-1-3.5-1.5-5.4c-1.6-5-3.5-9.8-5.5-14.6
	c-2.1-5.6-3-9-3-15C847,52,847,52,852,53z"/>
<path class="st5" d="M298,549c30.4-1.1,63.4,17.6,87.9,33.7c5.8,3.7,11.7,7.1,17.8,10.3c6.2,3.7,10.4,8,14.3,14
	c-2.4,11.9-7.5,22.4-13,33c-6.1-2.4-11.2-5.7-16.8-9.1c-3.1-1.9-3.1-1.9-6.3-3.9c-4.9-3-4.9-3-7.4-9.6
	c-12.5-31.2-25.8-45.3-58.2-55.7C311,560,311,560,307,558c0,0.7,0,1.3,0,2c2.5,1,2.5,1,5,2c15.9,7.8,27.9,16.1,39,30
	c-2.6,0.7-5.3,1.3-8,2c2.9,1.9,2.9,1.9,5.9,3.8c6.1,4.2,6.1,4.2,8.1,7.2c-4.3,0.7-8.6,1.3-13,2c4.4,2.3,4.4,2.3,11.2,4.1
	c7.8,2.5,15.7,6.3,17.8,14.9c-6.7,1.9-13,3.4-20,4c0,0.7,0,1.3,0,2c13.4,0.5,13.4,0.5,27,1c21,13.6,21,13.6,21,19c-7-1-7-1-11.8-2.5
	c-5.3-1.5-10-2.1-15.5-2.5c-33.1-2.9-53.9-21.1-67.6-50.9c-5.2-12.4-8.3-25.4-8.2-38.9c0-1.5,0-3,0-4.6C298,551.4,298,550.2,298,549
	z"/>
<path class="st6" d="M712,550c1.4,27.1-14.3,57.5-31,78c-1,1.3-2,2.6-3.1,3.9c-10.9,11.3-23.4,12.6-38.2,13.7
	c-10.4,0.6-10.4,0.6-20.7,2.4c-8,0-8,0-9-1c0-7,2-6.6,8-10c11.8-4.6,23.4-6.5,36-8c-6.9-1-6.9-1-14-2c1.6-9.9,7.4-11.3,16-15
	c-4,0-7.9,0-12,0c1-2,1-2,6.9-4.1c6.1-2.5,10.8-5,16.1-8.9c-5.9,0-11.9,0-18,0c5-6,10.4-11.5,16-17c1.3-1.3,2.6-2.6,4-4
	c-4,2-4,2-8,4c-0.7-0.3-1.3-0.7-2-1c10.3-7.4,20.7-12.8,32.3-17.9c4.7-2,4.7-2,8.7-5.1c-36.3,8.8-52.5,17.7-64.1,54.4
	c-3.9,11.4-8.2,17.6-19.2,22.9c-1.4,0.7-2.9,1.4-4.4,2.1c-1.1,0.5-2.2,1-3.3,1.6c-0.7,1-1.3,2-2,3c-15.9-32.5-15.9-32.5-9-44
	c1.7-1,3.3-2,5-3c1.7-1.3,3.3-2.6,5-4c2.4-1.6,4.8-3.3,7.2-4.9c4.2-2.8,8.4-5.5,12.5-8.4c4.9-3.2,10.1-5.9,15.2-8.8
	c2.4-1.5,4.8-3,7.1-4.5C661.3,557.7,701.7,539.7,712,550z"/>
<path class="st7" d="M474,828c21.5,0,42.9,0,65,0c0,6.1-3.4,7.3-8,11c-14.4,7.6-32.7,5.7-47-1C476.4,832.9,476.4,832.9,474,828z"/>
<path class="st8" d="M418,650c16.9,0,26.3,7.3,35,21c4.8,9.2,8,19.6,8,30c-1,0-2,0-3,0c-0.3-1.2-0.6-2.5-0.9-3.7
	c-4.3-17.5-10.2-34.6-28.1-42.3c-4-0.8-8-1.5-12-2C417.3,652,417.7,651,418,650z"/>
<path class="st9" d="M593,653c-2,1-2,1-4,0c-15.6-0.8-25.1,5-34.4,17.6c-4.8,9.9-6.9,20.4-7.6,31.4c-0.3,0-0.7,0-1,0
	c-0.8-20.2,3.5-37.6,21.6-49.3C577.4,647.9,583.6,647.6,593,653z"/>
<path class="st10" d="M800,265c2,1,2,1,3.6,4.6c0.7,1.6,1.4,3.1,2.1,4.8c1.1,2.5,1.1,2.5,2.2,5c1.6,3.5,3.3,7,5.1,10.5
	c7.6,19.8-5.8,39.3-15,56.2c-1,0.5-1,0.5-2,1c1.7-5,3.6-9.5,5.9-14.2c8.1-17.1,13.7-29.2,5.2-47.2C803.9,278.7,801.3,272.4,800,265z
	"/>
</svg>
